<?xml version="1.0" encoding="utf-8"?>
<!-- Generator: Avocode 2.4.5 - http://avocode.com -->
<svg height="22" width="22" xmlns:xlink="http://www.w3.org/1999/xlink" xmlns="http://www.w3.org/2000/svg" viewBox="0 0 22 22">
    <path fill="#000000" fill-rule="evenodd" d="M 20.78 0.01 L 1.21 0.01 C 0.54 0.01 0 0.55 0 1.22 L 0 20.79 C 0 21.46 0.54 22 1.21 22 L 11.75 22 L 11.75 13.48 L 8.88 13.48 L 8.88 10.16 L 11.75 10.16 L 11.75 7.72 C 11.75 4.88 13.48 3.33 16.01 3.33 C 17.23 3.33 18.27 3.42 18.58 3.46 L 18.58 6.43 L 16.82 6.43 C 15.44 6.43 15.17 7.08 15.17 8.05 L 15.17 10.16 L 18.46 10.16 L 18.03 13.48 L 15.17 13.48 L 15.17 22 L 20.78 22 C 21.45 22 21.99 21.46 21.99 20.79 L 21.99 1.22 C 21.99 0.55 21.45 0.01 20.78 0.01" />
</svg>