<?xml version="1.0" encoding="utf-8"?>
<!-- Generator: Avocode 2.4.5 - http://avocode.com -->
<svg height="22" width="22" xmlns:xlink="http://www.w3.org/1999/xlink" xmlns="http://www.w3.org/2000/svg" viewBox="0 0 22 22">
    <path fill="#000000" fill-rule="evenodd" d="M 20.17 0.37 L 1.46 0.37 C 0.67 0.42 0.05 1.04 0 1.81 L 0 20.54 C 0.05 21.33 0.64 21.93 1.4 22 C 1.42 22 1.43 22 1.44 22 L 20.19 22 C 20.2 22 20.21 22 20.23 22 C 21.01 21.93 21.63 21.25 21.63 20.46 L 21.63 1.91 C 21.63 1.11 21 0.43 20.2 0.37 C 20.19 0.37 20.18 0.37 20.17 0.37 L 20.17 0.37 Z M 20.17 0.82 C 20.74 0.86 21.18 1.33 21.18 1.91 L 21.18 20.46 C 21.18 21.03 20.74 21.5 20.19 21.55 L 1.44 21.55 C 0.91 21.5 0.48 21.08 0.45 20.54 L 0.45 1.84 C 0.48 1.29 0.92 0.85 1.46 0.82 L 20.17 0.82 L 20.17 0.82 Z M 20.17 0.82" />
    <path fill="#000000" fill-rule="evenodd" d="M 2.6 7.81 L 4.32 7.81 L 4.32 14.45 L 2.6 14.45 L 2.6 7.81 Z M 2.6 7.81" />
    <path fill="#000000" fill-rule="evenodd" d="M 7.98 7.81 L 7.58 10.92 L 7.33 9.23 C 7.26 8.69 7.19 8.22 7.13 7.81 L 4.9 7.81 L 4.9 14.45 L 6.41 14.45 L 6.41 10.07 L 7.04 14.45 L 8.11 14.45 L 8.72 9.97 L 8.72 14.45 L 10.21 14.45 L 10.21 7.81 L 7.98 7.81" />
    <path fill="#000000" fill-rule="evenodd" d="M 12.9 9.01 C 12.96 9.05 13.01 9.11 13.02 9.2 C 13.05 9.28 13.05 9.48 13.05 9.78 L 13.05 12.35 C 13.05 12.79 13.02 13.06 12.97 13.16 C 12.91 13.26 12.76 13.31 12.52 13.31 L 12.52 8.95 C 12.7 8.95 12.83 8.97 12.9 9.01 L 12.9 9.01 Z M 12.88 14.45 C 13.29 14.45 13.6 14.43 13.8 14.38 C 14.01 14.34 14.18 14.26 14.31 14.15 C 14.45 14.04 14.55 13.88 14.61 13.68 C 14.66 13.47 14.7 13.08 14.7 12.48 L 14.7 10.16 C 14.7 9.53 14.67 9.1 14.63 8.89 C 14.59 8.68 14.5 8.48 14.35 8.31 C 14.2 8.13 13.97 8.01 13.68 7.93 C 13.39 7.86 12.91 7.81 12.08 7.81 L 10.8 7.81 L 10.8 14.45 L 12.88 14.45 L 12.88 14.45 Z M 12.88 14.45" />
    <path fill="#000000" fill-rule="evenodd" d="M 17.51 12.84 C 17.51 13.16 17.49 13.36 17.46 13.45 C 17.43 13.53 17.29 13.58 17.19 13.58 C 17.09 13.58 17.01 13.53 16.98 13.46 C 16.95 13.38 16.93 13.19 16.93 12.89 L 16.93 11.14 C 16.93 10.84 16.95 10.65 16.98 10.58 C 17.01 10.5 17.08 10.47 17.17 10.47 C 17.28 10.47 17.42 10.5 17.45 10.6 C 17.49 10.68 17.51 10.86 17.51 11.14 L 17.51 12.84 L 17.51 12.84 Z M 15.28 7.81 L 15.28 14.45 L 16.82 14.45 L 16.93 14.03 C 17.07 14.2 17.22 14.33 17.39 14.41 C 17.56 14.49 17.81 14.54 18 14.54 C 18.28 14.54 18.51 14.47 18.71 14.32 C 18.9 14.18 19.03 14.01 19.09 13.82 C 19.13 13.62 19.17 13.33 19.17 12.93 L 19.17 11.07 C 19.17 10.67 19.15 10.41 19.13 10.28 C 19.12 10.16 19.07 10.03 18.98 9.9 C 18.89 9.78 18.76 9.68 18.6 9.61 C 18.43 9.54 18.24 9.5 18 9.5 C 17.81 9.5 17.56 9.54 17.39 9.62 C 17.22 9.7 17.07 9.82 16.93 9.98 L 16.93 7.81 L 15.28 7.81 L 15.28 7.81 Z M 15.28 7.81" />
</svg>