<?xml version="1.0" encoding="utf-8"?>
<!-- Generator: Avocode 2.4.5 - http://avocode.com -->
<svg height="22" width="22" xmlns:xlink="http://www.w3.org/1999/xlink" xmlns="http://www.w3.org/2000/svg" viewBox="0 0 22 22">
    <path fill="#000000" fill-rule="evenodd" d="M 19.8 0 L 2.2 0 C 0.99 0 0 0.99 0 2.2 L 0 19.8 C 0 21.01 0.99 22 2.2 22 L 19.8 22 C 21.01 22 22 21.01 22 19.8 L 22 2.2 C 22 0.99 21.01 0 19.8 0 L 19.8 0 Z M 11 6.6 C 13.42 6.6 15.4 8.58 15.4 11 C 15.4 13.42 13.42 15.4 11 15.4 C 8.58 15.4 6.6 13.42 6.6 11 C 6.6 8.58 8.58 6.6 11 6.6 L 11 6.6 Z M 2.75 19.8 C 2.42 19.8 2.2 19.58 2.2 19.25 L 2.2 9.9 L 4.51 9.9 C 4.4 10.23 4.4 10.67 4.4 11 C 4.4 14.63 7.37 17.6 11 17.6 C 14.63 17.6 17.6 14.63 17.6 11 C 17.6 10.67 17.6 10.23 17.49 9.9 L 19.8 9.9 L 19.8 19.25 C 19.8 19.58 19.58 19.8 19.25 19.8 L 2.75 19.8 Z M 19.8 4.95 C 19.8 5.28 19.58 5.5 19.25 5.5 L 17.05 5.5 C 16.72 5.5 16.5 5.28 16.5 4.95 L 16.5 2.75 C 16.5 2.42 16.72 2.2 17.05 2.2 L 19.25 2.2 C 19.58 2.2 19.8 2.42 19.8 2.75 L 19.8 4.95 Z M 19.8 4.95" />
</svg>