<?xml version="1.0" encoding="utf-8"?>
<!-- Generator: Avocode 2.4.5 - http://avocode.com -->
<svg height="22" width="21" xmlns:xlink="http://www.w3.org/1999/xlink" xmlns="http://www.w3.org/2000/svg" viewBox="0 0 21 22">
    <path fill="#000000" fill-rule="evenodd" d="M 10.91 0.83 C 5.33 0.83 0.81 5.38 0.81 11 C 0.81 15.31 3.47 18.99 7.23 20.47 C 7.14 19.67 7.06 18.43 7.27 17.55 C 7.45 16.76 8.45 12.5 8.45 12.5 C 8.45 12.5 8.15 11.89 8.15 10.99 C 8.15 9.57 8.96 8.52 9.97 8.52 C 10.84 8.52 11.25 9.17 11.25 9.95 C 11.25 10.82 10.7 12.13 10.42 13.34 C 10.18 14.35 10.92 15.17 11.91 15.17 C 13.71 15.17 15.09 13.27 15.09 10.52 C 15.09 8.08 13.35 6.38 10.87 6.38 C 7.99 6.38 6.31 8.55 6.31 10.79 C 6.31 11.67 6.64 12.6 7.06 13.11 C 7.14 13.22 7.15 13.3 7.13 13.41 C 7.05 13.73 6.88 14.42 6.85 14.56 C 6.8 14.75 6.7 14.79 6.51 14.7 C 5.25 14.1 4.46 12.25 4.46 10.76 C 4.46 7.55 6.78 4.6 11.13 4.6 C 14.64 4.6 17.36 7.11 17.36 10.47 C 17.36 13.98 15.17 16.8 12.12 16.8 C 11.1 16.8 10.13 16.27 9.8 15.63 C 9.8 15.63 9.3 17.58 9.18 18.05 C 8.95 18.93 8.33 20.04 7.92 20.72 C 8.87 21.01 9.87 21.17 10.91 21.17 C 16.49 21.17 21.01 16.62 21.01 11 C 21.01 5.38 16.49 0.83 10.91 0.83" />
</svg>