<?xml version="1.0" encoding="utf-8"?>
<!-- Generator: Avocode 2.4.5 - http://avocode.com -->
<svg height="22" width="39" xmlns:xlink="http://www.w3.org/1999/xlink" xmlns="http://www.w3.org/2000/svg" viewBox="0 0 39 22">
    <path fill="#000000" fill-rule="evenodd" d="M 2.01 8.81 C 2 8.72 1.93 8.66 1.85 8.66 C 1.77 8.66 1.7 8.72 1.69 8.81 C 1.69 8.81 1.31 12.26 1.31 12.26 L 1.69 15.63 C 1.7 15.72 1.77 15.79 1.85 15.79 C 1.93 15.79 2 15.72 2.01 15.63 L 2.44 12.26 L 2.01 8.81 Z M 2.01 8.81" />
    <path fill="#000000" fill-rule="evenodd" d="M 0.43 9.98 C 0.35 9.98 0.29 10.04 0.28 10.13 L 0 12.26 L 0.28 14.35 C 0.29 14.44 0.35 14.5 0.43 14.5 C 0.51 14.5 0.57 14.44 0.59 14.36 L 0.92 12.26 L 0.59 10.13 C 0.57 10.04 0.51 9.98 0.43 9.98" />
    <path fill="#000000" fill-rule="evenodd" d="M 3.35 16.39 C 3.45 16.39 3.53 16.31 3.55 16.2 L 3.95 12.26 L 3.55 8.17 C 3.53 8.06 3.45 7.98 3.35 7.98 C 3.25 7.98 3.17 8.06 3.16 8.17 C 3.16 8.17 2.8 12.26 2.8 12.26 L 3.16 16.2 C 3.17 16.31 3.25 16.39 3.35 16.39" />
    <path fill="#000000" fill-rule="evenodd" d="M 5.09 8.06 C 5.08 7.93 4.99 7.84 4.87 7.84 C 4.75 7.84 4.65 7.93 4.65 8.06 L 4.31 12.26 L 4.65 16.33 C 4.65 16.45 4.75 16.55 4.87 16.55 C 4.99 16.55 5.08 16.45 5.09 16.33 L 5.48 12.26 L 5.09 8.06 Z M 5.09 8.06" />
    <path fill="#000000" fill-rule="evenodd" d="M 6.4 16.61 C 6.54 16.61 6.65 16.5 6.66 16.36 L 7.02 12.26 L 6.66 8.36 C 6.65 8.22 6.54 8.11 6.4 8.11 C 6.26 8.11 6.15 8.22 6.14 8.36 L 5.82 12.26 L 6.14 16.36 C 6.15 16.5 6.26 16.61 6.4 16.61" />
    <path fill="#000000" fill-rule="evenodd" d="M 7.94 5.64 C 7.79 5.64 7.66 5.76 7.65 5.92 C 7.65 5.92 7.35 12.26 7.35 12.26 L 7.65 16.36 C 7.66 16.52 7.79 16.65 7.94 16.65 C 8.09 16.65 8.22 16.52 8.23 16.36 L 8.23 16.36 L 8.57 12.26 L 8.23 5.92 C 8.22 5.76 8.09 5.64 7.94 5.64" />
    <path fill="#000000" fill-rule="evenodd" d="M 9.47 16.68 C 9.64 16.68 9.78 16.54 9.79 16.36 L 9.79 16.36 L 10.11 12.29 L 9.79 4.49 C 9.78 4.31 9.64 4.17 9.47 4.17 C 9.3 4.17 9.15 4.31 9.15 4.49 C 9.15 4.5 8.87 12.29 8.87 12.29 L 9.15 16.36 C 9.15 16.54 9.3 16.68 9.47 16.68" />
    <path fill="#000000" fill-rule="evenodd" d="M 11.06 16.65 C 11.25 16.65 11.41 16.49 11.41 16.29 L 11.71 12.26 L 11.41 3.82 C 11.41 3.63 11.25 3.47 11.06 3.47 C 10.87 3.47 10.71 3.63 10.7 3.82 C 10.7 3.82 10.44 12.26 10.44 12.26 L 10.7 16.3 C 10.71 16.49 10.87 16.65 11.06 16.65" />
    <path fill="#000000" fill-rule="evenodd" d="M 13.03 16.27 L 13.3 12.27 L 13.03 3.54 C 13.02 3.32 12.85 3.15 12.64 3.15 C 12.43 3.15 12.26 3.32 12.25 3.54 L 12.01 12.27 L 12.25 16.27 C 12.26 16.48 12.43 16.65 12.64 16.65 C 12.85 16.65 13.02 16.48 13.03 16.27" />
    <path fill="#000000" fill-rule="evenodd" d="M 14.23 16.65 C 14.46 16.65 14.64 16.47 14.65 16.23 L 14.65 16.23 L 14.9 12.27 L 14.65 3.76 C 14.64 3.53 14.46 3.34 14.23 3.34 C 14 3.34 13.81 3.53 13.81 3.76 L 13.59 12.27 L 13.81 16.23 C 13.81 16.47 14 16.65 14.23 16.65" />
    <path fill="#000000" fill-rule="evenodd" d="M 15.83 3.62 C 15.58 3.62 15.38 3.82 15.38 4.07 L 15.18 12.27 L 15.38 16.21 C 15.38 16.46 15.58 16.66 15.83 16.66 C 16.08 16.66 16.28 16.46 16.28 16.21 L 16.28 16.21 L 16.51 12.27 L 16.28 4.07 C 16.28 3.82 16.08 3.62 15.83 3.62" />
    <path fill="#000000" fill-rule="evenodd" d="M 16.96 16.2 C 16.97 16.31 17.01 16.41 17.07 16.49 C 17.16 16.6 17.3 16.67 17.45 16.67 C 17.58 16.67 17.7 16.61 17.79 16.52 C 17.87 16.44 17.93 16.31 17.93 16.18 L 17.95 15.79 L 18.14 12.27 L 17.93 2.52 C 17.93 2.35 17.84 2.2 17.71 2.12 C 17.64 2.06 17.55 2.03 17.45 2.03 C 17.35 2.03 17.26 2.06 17.18 2.11 C 17.05 2.2 16.96 2.35 16.96 2.52 L 16.96 2.61 L 16.78 12.26 C 16.78 12.27 16.96 16.18 16.96 16.18 C 16.96 16.19 16.96 16.19 16.96 16.2" />
    <path fill="#000000" fill-rule="evenodd" d="M 19.32 1.19 C 19.24 1.14 19.15 1.12 19.05 1.12 C 18.93 1.12 18.82 1.16 18.73 1.24 C 18.61 1.33 18.54 1.47 18.54 1.64 L 18.53 1.69 L 18.32 12.27 L 18.43 14.22 L 18.54 16.13 C 18.54 16.41 18.77 16.64 19.05 16.64 C 19.34 16.64 19.57 16.41 19.57 16.12 L 19.57 16.13 L 19.57 16.13 L 19.8 12.27 L 19.8 12.27 L 19.57 1.63 C 19.57 1.45 19.47 1.28 19.32 1.19" />
    <path fill="#000000" fill-rule="evenodd" d="M 31.76 7.6 C 31.38 3.35 27.83 0.01 23.48 0.01 C 22.42 0.01 21.39 0.22 20.47 0.58 C 20.12 0.71 20.02 0.85 20.02 1.13 L 20.02 16.11 C 20.02 16.4 20.24 16.62 20.53 16.65 C 20.53 16.65 26.66 16.65 30.52 16.65 C 32.29 16.65 33.58 16.65 33.58 16.65 C 36.18 16.65 38.29 14.56 38.29 11.96 C 38.29 9.35 36.18 7.24 33.58 7.24 C 32.94 7.24 32.32 7.37 31.76 7.6 Z M 31.76 7.6" />
    <path fill="#000000" fill-rule="evenodd" d="M 34.29 20.95 L 33.95 20.95 L 33.95 18.81 L 34.31 18.81 C 35.05 18.81 35.35 19.17 35.35 19.88 C 35.35 20.52 35.02 20.95 34.29 20.95 M 34.34 18.14 L 33.25 18.14 L 33.25 21.63 L 34.29 21.63 C 35.18 21.63 36.07 21.11 36.07 19.88 C 36.07 18.6 35.33 18.14 34.34 18.14" />
    <path fill="#000000" fill-rule="evenodd" d="M 21.54 18.78 C 21.86 18.78 22.06 18.91 22.18 19.15 L 22.83 18.85 C 22.61 18.4 22.21 18.08 21.55 18.08 C 20.64 18.08 20.01 18.82 20.01 19.88 C 20.01 20.98 20.62 21.68 21.53 21.68 C 22.16 21.68 22.58 21.39 22.82 20.89 L 22.23 20.54 C 22.05 20.85 21.86 20.99 21.55 20.99 C 21.03 20.99 20.72 20.51 20.72 19.88 C 20.72 19.23 21.02 18.78 21.54 18.78" />
    <path fill="#00161d" fill-rule="evenodd" d="M 27.36 20.99 C 26.8 20.99 26.56 20.5 26.56 19.88 C 26.56 19.26 26.8 18.78 27.36 18.78 C 27.92 18.78 28.15 19.26 28.15 19.88 C 28.15 20.5 27.92 20.99 27.36 20.99 M 27.36 18.08 C 26.41 18.08 25.85 18.82 25.85 19.88 C 25.85 20.94 26.41 21.68 27.36 21.68 C 28.31 21.68 28.87 20.94 28.87 19.88 C 28.87 18.82 28.31 18.08 27.36 18.08" />
    <path fill="#000000" fill-rule="evenodd" d="M 24.13 18.14 L 23.43 18.14 L 23.43 21.63 L 25.52 21.63 L 25.52 20.94 L 24.13 20.94 L 24.13 18.14 Z M 24.13 18.14" />
    <path fill="#000000" fill-rule="evenodd" d="M 31.68 20.1 C 31.68 20.65 31.41 21 30.97 21 C 30.52 21 30.25 20.64 30.25 20.09 L 30.25 18.14 L 29.56 18.14 L 29.56 20.1 C 29.56 21.11 30.13 21.68 30.97 21.68 C 31.85 21.68 32.38 21.1 32.38 20.09 L 32.38 18.14 L 31.68 18.14 L 31.68 20.1 Z M 31.68 20.1" />
    <path fill="#000000" fill-rule="evenodd" d="M 6.96 20.99 C 6.4 20.99 6.17 20.5 6.17 19.88 C 6.17 19.26 6.4 18.78 6.96 18.78 C 7.53 18.78 7.76 19.26 7.76 19.88 C 7.76 20.5 7.53 20.99 6.96 20.99 M 6.96 18.08 C 6.01 18.08 5.45 18.82 5.45 19.88 C 5.45 20.94 6.01 21.68 6.96 21.68 C 7.91 21.68 8.48 20.94 8.48 19.88 C 8.48 18.82 7.91 18.08 6.96 18.08" />
    <path fill="#000000" fill-rule="evenodd" d="M 11.29 20.1 C 11.29 20.65 11.01 21 10.57 21 C 10.13 21 9.86 20.64 9.86 20.09 L 9.86 18.14 L 9.16 18.14 L 9.16 20.1 C 9.16 21.11 9.73 21.68 10.57 21.68 C 11.46 21.68 11.98 21.1 11.98 20.09 L 11.98 18.14 L 11.29 18.14 L 11.29 20.1 Z M 11.29 20.1" />
    <path fill="#000000" fill-rule="evenodd" d="M 17.61 20.95 L 17.27 20.95 L 17.27 18.81 L 17.63 18.81 C 18.37 18.81 18.67 19.17 18.67 19.88 C 18.67 20.52 18.34 20.95 17.61 20.95 M 17.66 18.14 L 16.57 18.14 L 16.57 21.63 L 17.61 21.63 C 18.51 21.63 19.39 21.11 19.39 19.88 C 19.39 18.6 18.65 18.14 17.66 18.14" />
    <path fill="#000000" fill-rule="evenodd" d="M 14.99 19.61 C 14.99 19.81 15 20.25 15 20.38 C 14.95 20.29 14.84 20.11 14.75 19.98 L 13.52 18.14 L 12.85 18.14 L 12.85 21.63 L 13.54 21.63 L 13.54 20.09 C 13.54 19.9 13.53 19.46 13.53 19.33 C 13.58 19.42 13.69 19.59 13.77 19.72 L 15.05 21.63 L 15.67 21.63 L 15.67 18.14 L 14.99 18.14 L 14.99 19.61 Z M 14.99 19.61" />
    <path fill="#000000" fill-rule="evenodd" d="M 3.76 19.49 C 3.21 19.36 3.06 19.29 3.06 19.07 C 3.06 18.92 3.18 18.76 3.56 18.76 C 3.87 18.76 4.12 18.89 4.35 19.12 L 4.85 18.63 C 4.52 18.29 4.12 18.08 3.58 18.08 C 2.89 18.08 2.34 18.47 2.34 19.1 C 2.34 19.79 2.79 20 3.43 20.15 C 4.08 20.3 4.2 20.4 4.2 20.62 C 4.2 20.88 4.01 21 3.6 21 C 3.26 21 2.95 20.88 2.71 20.6 L 2.2 21.05 C 2.47 21.44 2.97 21.68 3.56 21.68 C 4.51 21.68 4.92 21.23 4.92 20.57 C 4.92 19.81 4.31 19.62 3.76 19.49" />
</svg>