<?xml version="1.0" encoding="utf-8"?>
<!-- Generator: Avocode 2.4.5 - http://avocode.com -->
<svg height="22" width="53" xmlns:xlink="http://www.w3.org/1999/xlink" xmlns="http://www.w3.org/2000/svg" viewBox="0 0 53 22">
    <path fill="#0b0b0a" fill-rule="evenodd" d="M 52.38 4.82 C 52.38 4.82 52.08 2.68 51.14 1.73 C 49.94 0.49 48.6 0.48 47.99 0.41 C 43.59 0.1 37 0.1 37 0.1 L 36.99 0.1 C 36.99 0.1 30.39 0.1 26 0.41 C 25.39 0.48 24.05 0.49 22.85 1.73 C 21.91 2.68 21.6 4.82 21.6 4.82 C 21.6 4.82 21.29 7.34 21.29 9.86 L 21.29 12.22 C 21.29 14.74 21.6 17.26 21.6 17.26 C 21.6 17.26 21.91 19.41 22.85 20.36 C 24.05 21.6 25.62 21.56 26.32 21.69 C 28.83 21.93 36.99 22 36.99 22 C 36.99 22 43.59 21.99 47.99 21.68 C 48.6 21.6 49.94 21.6 51.14 20.36 C 52.08 19.41 52.38 17.26 52.38 17.26 C 52.38 17.26 52.7 14.74 52.7 12.22 L 52.7 9.86 C 52.7 7.34 52.38 4.82 52.38 4.82" />
    <path fill="#0b0b0a" fill-rule="evenodd" d="M 19.67 17.82 L 17.67 17.82 L 17.67 16.67 C 16.91 17.53 16.27 17.97 15.57 17.97 C 14.96 17.97 14.53 17.68 14.32 17.16 C 14.19 16.84 14.09 16.35 14.09 15.62 L 14.09 7.24 L 16.09 7.24 L 16.09 15.1 L 16.09 15.83 C 16.14 16.13 16.26 16.23 16.52 16.23 C 16.9 16.23 17.25 15.9 17.67 15.31 L 17.67 7.24 L 19.67 7.24 L 19.67 17.82" />
    <path fill="#0b0b0a" fill-rule="evenodd" d="M 10.62 14.68 C 10.73 15.73 10.4 16.25 9.78 16.25 C 9.16 16.25 8.84 15.73 8.94 14.68 L 8.94 10.49 C 8.84 9.44 9.16 8.95 9.78 8.95 C 10.4 8.95 10.73 9.44 10.62 10.49 L 10.62 14.68 L 10.62 14.68 Z M 12.62 10.7 C 12.62 9.57 12.39 8.72 11.99 8.18 C 11.46 7.46 10.62 7.16 9.78 7.16 C 8.83 7.16 8.1 7.46 7.57 8.18 C 7.16 8.72 6.94 9.58 6.94 10.71 L 6.94 14.47 C 6.94 15.59 7.14 16.37 7.55 16.9 C 8.08 17.62 8.94 18 9.78 18 C 10.62 18 11.5 17.62 12.03 16.9 C 12.44 16.37 12.62 15.59 12.62 14.47 L 12.62 10.7 L 12.62 10.7 Z M 12.62 10.7" />
    <path fill="#0b0b0a" fill-rule="evenodd" d="M 4.73 12.06 L 4.73 17.82 L 2.63 17.82 L 2.63 12.06 C 2.63 12.06 0.45 5 0 3.68 L 2.21 3.68 L 3.68 9.2 L 5.15 3.68 L 7.36 3.68 L 4.73 12.06" />
    <path fill="#fffffe" fill-rule="evenodd" d="M 46.28 10.17 C 46.28 9.19 46.55 8.92 47.18 8.92 C 47.82 8.92 48.07 9.21 48.07 10.18 L 48.07 11.33 L 46.28 11.33 L 46.28 10.17 L 46.28 10.17 Z M 50.07 12.9 L 50.07 10.76 C 50.07 9.64 49.85 8.82 49.45 8.29 C 48.92 7.57 48.16 7.19 47.2 7.19 C 46.23 7.19 45.47 7.57 44.92 8.29 C 44.52 8.82 44.28 9.68 44.28 10.8 L 44.28 14.47 C 44.28 15.58 44.54 16.36 44.94 16.88 C 45.49 17.6 46.25 17.96 47.25 17.96 C 48.24 17.96 49.03 17.58 49.55 16.82 C 49.78 16.49 49.93 16.11 50 15.69 C 50.01 15.5 50.07 15.06 50.07 14.45 L 50.07 14.16 L 48.07 14.16 C 48.07 14.92 48.07 15.37 48.05 15.47 C 47.94 15.98 47.67 16.23 47.2 16.23 C 46.55 16.23 46.27 15.75 46.28 14.78 L 46.28 12.9 L 50.07 12.9 L 50.07 12.9 Z M 50.07 12.9" />
    <path fill="#fffffe" fill-rule="evenodd" d="M 41.02 14.78 C 41.02 15.83 40.77 16.23 40.22 16.23 C 39.91 16.23 39.55 16.07 39.23 15.76 L 39.23 9.4 C 39.55 9.09 39.91 8.92 40.22 8.92 C 40.77 8.92 41.02 9.23 41.02 10.28 L 41.02 14.78 L 41.02 14.78 Z M 41.24 7.18 C 40.54 7.18 39.84 7.61 39.23 8.36 L 39.23 3.78 L 37.34 3.78 L 37.34 17.82 L 39.23 17.82 L 39.23 16.77 C 39.87 17.55 40.56 17.96 41.24 17.96 C 42 17.96 42.55 17.55 42.81 16.77 C 42.94 16.33 43.02 15.65 43.02 14.68 L 43.02 10.49 C 43.02 9.5 42.89 8.82 42.76 8.4 C 42.51 7.61 42 7.18 41.24 7.18 L 41.24 7.18 Z M 41.24 7.18" />
    <path fill="#fffffe" fill-rule="evenodd" d="M 35.76 17.82 L 33.76 17.82 L 33.76 16.67 C 33 17.53 32.36 17.97 31.66 17.97 C 31.05 17.97 30.62 17.68 30.41 17.16 C 30.28 16.84 30.19 16.35 30.19 15.62 L 30.19 7.35 L 32.18 7.35 L 32.18 15.1 L 32.18 15.83 C 32.23 16.13 32.36 16.23 32.61 16.23 C 32.99 16.23 33.34 15.9 33.76 15.31 L 33.76 7.35 L 35.76 7.35 L 35.76 17.82" />
    <path fill="#fffffe" fill-rule="evenodd" d="M 28.19 17.82 L 26.08 17.82 L 26.08 5.77 L 23.88 5.77 L 23.88 3.79 L 30.5 3.78 L 30.5 5.77 L 28.19 5.77 L 28.19 17.82" />
</svg>